<svg width="18" height="18" viewBox="0 0 18 18" fill="none" xmlns="http://www.w3.org/2000/svg">
<path fill-rule="evenodd" clip-rule="evenodd" d="M1.28975 4.66475C1.50942 4.44508 1.86558 4.44508 2.08525 4.66475L6.75 9.3295L9.16475 6.91475C9.38442 6.69508 9.74058 6.69508 9.96025 6.91475L16.7102 13.6648C16.9299 13.8844 16.9299 14.2406 16.7102 14.4602C16.4906 14.6799 16.1344 14.6799 15.9148 14.4602L9.5625 8.108L7.14775 10.5227C6.92808 10.7424 6.57192 10.7424 6.35225 10.5227L1.28975 5.46025C1.07008 5.24058 1.07008 4.88442 1.28975 4.66475Z" fill="#F74E2C"/>
<path fill-rule="evenodd" clip-rule="evenodd" d="M16.3125 9C16.6232 9 16.875 9.25184 16.875 9.5625V14.0625C16.875 14.3732 16.6232 14.625 16.3125 14.625H11.8125C11.5018 14.625 11.25 14.3732 11.25 14.0625C11.25 13.7518 11.5018 13.5 11.8125 13.5H15.75V9.5625C15.75 9.25184 16.0018 9 16.3125 9Z" fill="#F74E2C"/>
</svg>
